/* XPM */
static char *__[] = {
/* columns rows colors chars-per-pixel */
"32 32 16 1",
"  c #DB5A50",
". c #DE6961",
"X c #E07770",
"o c #E2857E",
"O c #E5918C",
"+ c #E79D98",
"@ c #EAA8A4",
"# c #ECB3B0",
"$ c #EFBEBB",
"% c #F3D1D0",
"& c #F6DBDA",
"* c #F8E4E3",
"= c #FAEDED",
"- c #FDF6F6",
"; c #FFFFFF",
": c None",
/* pixels */
"::::::::::::        ::::::::::::",
":::::::::              :::::::::",
":::::::                  :::::::",
"::::::                    ::::::",
":::::                      :::::",
"::::                        ::::",
":::                          :::",
"::                            ::",
"::         &;;;;;;;=$         ::",
":          &;XXXXX+=;-o        :",
":          &;       +;-.       :",
":        ; &; ;      #;%       :",
"         ; &; ;       --        ",
"         ; &; ;       %;o       ",
"         ; &; ;       #;+       ",
"         ; &; ;       @;@       ",
"         ; &; ;       @;@       ",
"         ; &; ;       $;O       ",
"         ; &; ;       %;.       ",
"         ; &; ;       -=        ",
":        ; &; ;      #;#       :",
":        ; &; ;     +;=        :",
":          &;XXXXX@*;-X        :",
"::         &;;;;;;;=#         ::",
"::                            ::",
":::                          :::",
"::::                        ::::",
":::::                      :::::",
"::::::                    ::::::",
":::::::                  :::::::",
":::::::::              :::::::::",
"::::::::::::        ::::::::::::"
};
