/* XPM */
static char *__[] = {
/* columns rows colors chars-per-pixel */
"16 16 3 1",
"  c #DB5A50",
". c #FFFFFF",
"X c None",
/* pixels */
"XXXXX      XXXXX",
"XXX          XXX",
"XX            XX",
"X              X",
"X              X",
"      ....      ",
"      .   .     ",
"    . . .  .    ",
"    . . .  .    ",
"    . . .  .    ",
"      .   .     ",
"X     ....     X",
"X              X",
"XX            XX",
"XXX          XXX",
"XXXXX      XXXXX"
};
